<mxfile host="65bd71144e">
    <diagram id="UrSp_BBSdQbIXERlr0E4" name="Page-1">
        <mxGraphModel dx="1502" dy="1605" grid="1" gridSize="10" guides="1" tooltips="1" connect="1" arrows="1" fold="1" page="1" pageScale="1" pageWidth="850" pageHeight="1100" background="#ffffff" math="0" shadow="0">
            <root>
                <mxCell id="0"/>
                <mxCell id="1" parent="0"/>
                <mxCell id="2" value="&lt;h2 style=&quot;box-sizing: inherit; line-height: 48.18px; margin: 1.46rem 0px 1.168rem; font-family: Roboto, sans-serif; background-color: rgb(255, 255, 255);&quot; id=&quot;company-data-storage-requirements&quot;&gt;&lt;font color=&quot;#cc0000&quot; style=&quot;font-size: 18px;&quot;&gt;Corporate Data Storage Requirements&lt;/font&gt;&lt;/h2&gt;&lt;p style=&quot;box-sizing: inherit; color: rgba(0, 0, 0, 0.87); font-family: Roboto, sans-serif; text-align: start; background-color: rgb(255, 255, 255); font-size: 14px;&quot;&gt;&lt;font style=&quot;font-size: 14px;&quot;&gt;1. The company is organized into branches.&amp;nbsp;&lt;/font&gt;&lt;/p&gt;&lt;p style=&quot;box-sizing: inherit; color: rgba(0, 0, 0, 0.87); font-family: Roboto, sans-serif; text-align: start; background-color: rgb(255, 255, 255); font-size: 14px;&quot;&gt;&lt;font style=&quot;font-size: 14px;&quot;&gt;Each branch has a unique number, a name, and a particular employee who manages it.&lt;/font&gt;&lt;/p&gt;&lt;p style=&quot;box-sizing: inherit; color: rgba(0, 0, 0, 0.87); font-family: Roboto, sans-serif; text-align: start; background-color: rgb(255, 255, 255); font-size: 14px;&quot;&gt;&lt;font style=&quot;font-size: 14px;&quot;&gt;2. The company makes it’s money by selling to clients.&lt;/font&gt;&lt;/p&gt;&lt;p style=&quot;box-sizing: inherit; color: rgba(0, 0, 0, 0.87); font-family: Roboto, sans-serif; text-align: start; background-color: rgb(255, 255, 255); font-size: 14px;&quot;&gt;&lt;font style=&quot;font-size: 14px;&quot;&gt;&amp;nbsp;Each client has a name and a unique number to identify it.&lt;/font&gt;&lt;/p&gt;&lt;p style=&quot;box-sizing: inherit; color: rgba(0, 0, 0, 0.87); font-family: Roboto, sans-serif; text-align: start; background-color: rgb(255, 255, 255); font-size: 14px;&quot;&gt;&lt;font style=&quot;font-size: 14px;&quot;&gt;3. The foundation of the company is it’s employees.&amp;nbsp;&lt;/font&gt;&lt;/p&gt;&lt;p style=&quot;box-sizing: inherit; color: rgba(0, 0, 0, 0.87); font-family: Roboto, sans-serif; text-align: start; background-color: rgb(255, 255, 255); font-size: 14px;&quot;&gt;&lt;font style=&quot;font-size: 14px;&quot;&gt;Each employee has a name, birthday, sex, salary and a unique number.&lt;/font&gt;&lt;/p&gt;&lt;p style=&quot;box-sizing: inherit; color: rgba(0, 0, 0, 0.87); font-family: Roboto, sans-serif; text-align: start; background-color: rgb(255, 255, 255); font-size: 14px;&quot;&gt;&lt;font style=&quot;font-size: 14px;&quot;&gt;4. An employee can work for one branch at a time, and each branch will be managed by one of the employees that work there.&lt;/font&gt;&lt;/p&gt;&lt;p style=&quot;box-sizing: inherit; color: rgba(0, 0, 0, 0.87); font-family: Roboto, sans-serif; text-align: start; background-color: rgb(255, 255, 255); font-size: 14px;&quot;&gt;&lt;font style=&quot;font-size: 14px;&quot;&gt;&amp;nbsp;We’ll also want to keep track of when the current manager started as manager.&lt;/font&gt;&lt;/p&gt;&lt;p style=&quot;box-sizing: inherit; color: rgba(0, 0, 0, 0.87); font-family: Roboto, sans-serif; text-align: start; background-color: rgb(255, 255, 255); font-size: 14px;&quot;&gt;&lt;font style=&quot;font-size: 14px;&quot;&gt;5. An employee can act as a supervisor for other employees at the branch, an employee may also act as the supervisor for employees at other branches.&amp;nbsp;&lt;/font&gt;&lt;/p&gt;&lt;p style=&quot;box-sizing: inherit; color: rgba(0, 0, 0, 0.87); font-family: Roboto, sans-serif; text-align: start; background-color: rgb(255, 255, 255); font-size: 14px;&quot;&gt;&lt;font style=&quot;font-size: 14px;&quot;&gt;An employee can have at most one supervisor.&lt;/font&gt;&lt;/p&gt;&lt;p style=&quot;box-sizing: inherit; color: rgba(0, 0, 0, 0.87); font-family: Roboto, sans-serif; text-align: start; background-color: rgb(255, 255, 255); font-size: 14px;&quot;&gt;&lt;font style=&quot;font-size: 14px;&quot;&gt;6. A branch may handle a number of clients, with each client having a name and a unique number to identify it.&amp;nbsp;&lt;/font&gt;&lt;/p&gt;&lt;p style=&quot;box-sizing: inherit; color: rgba(0, 0, 0, 0.87); font-family: Roboto, sans-serif; text-align: start; background-color: rgb(255, 255, 255); font-size: 14px;&quot;&gt;&lt;font style=&quot;font-size: 14px;&quot;&gt;A single client may only be handled by one branch at a time.&lt;/font&gt;&lt;/p&gt;&lt;p style=&quot;box-sizing: inherit; color: rgba(0, 0, 0, 0.87); font-family: Roboto, sans-serif; text-align: start; background-color: rgb(255, 255, 255); font-size: 14px;&quot;&gt;&lt;font style=&quot;font-size: 14px;&quot;&gt;7. Employees can work with clients controlled by their branch to sell them stuff.&amp;nbsp;&lt;/font&gt;&lt;/p&gt;&lt;p style=&quot;box-sizing: inherit; color: rgba(0, 0, 0, 0.87); font-family: Roboto, sans-serif; text-align: start; background-color: rgb(255, 255, 255); font-size: 14px;&quot;&gt;&lt;font style=&quot;font-size: 14px;&quot;&gt;If nescessary multiple employees can work with the same client. We’ll want to keep track of how many dollars worth of stuff each employee sells to each client they work with.&lt;/font&gt;&lt;/p&gt;&lt;p style=&quot;box-sizing: inherit; color: rgba(0, 0, 0, 0.87); font-family: Roboto, sans-serif; text-align: start; background-color: rgb(255, 255, 255); font-size: 14px;&quot;&gt;&lt;font style=&quot;font-size: 14px;&quot;&gt;8. Many branches will need to work with suppliers to buy inventory.&amp;nbsp;&lt;/font&gt;&lt;/p&gt;&lt;p style=&quot;box-sizing: inherit; color: rgba(0, 0, 0, 0.87); font-family: Roboto, sans-serif; text-align: start; background-color: rgb(255, 255, 255); font-size: 14px;&quot;&gt;&lt;font style=&quot;font-size: 14px;&quot;&gt;For each supplier we’ll keep track of their name and the type of product they’re selling the branch. A single supplier may supply products to multiple branches&lt;/font&gt;&lt;font style=&quot;font-size: 9px;&quot;&gt;.&lt;/font&gt;&lt;/p&gt;" style="text;html=1;align=center;verticalAlign=middle;resizable=0;points=[];autosize=1;strokeColor=none;fillColor=none;fontSize=9;" vertex="1" parent="1">
                    <mxGeometry x="-540" y="-450" width="1100" height="600" as="geometry"/>
                </mxCell>
            </root>
        </mxGraphModel>
    </diagram>
</mxfile>